# xmcd
#
# Track frame offsets: 
#        150
#        16042
#        33023
#        51582
#        71285
#        86712
#        100052
#        115032
#        130684
#        148451
#        168372
#        185493
#        200105
#        212774
#        232051
#        247478
#        276818
#        290271
#        305853
#        321361
#
# Disc length: 4500 seconds
#
# Revision: 2
# Processed by: cddbd v1.5.2PL0 Copyright (c) Steve Scherf et al.
# Submitted via: ExactAudioCopyFreeDBPlugin 1.0
#
DISCID=35119214
DTITLE=Various Artist - hot and new country music # 2
DYEAR=2011
DGENRE=Country
TTITLE0=Uncle Kracker - Smile
TTITLE1=Eric Heatherly - Old Enough To Be Her Daddy
TTITLE2=Sugarland - Stuck Like Glue
TTITLE3=Brad Paisley - Water
TTITLE4=Blake Shelton - All About Tonight
TTITLE5=Carrie Underwood - Undo It
TTITLE6=Josh Turner - All Over Me
TTITLE7=Easton Corbin - Roll With It
TTITLE8=Miranda Lambert - The House That Built Me
TTITLE9=Cody McCarver - I'm America
TTITLE10=Zac Brown Band - Free
TTITLE11=Jerrod Niemann - Lover, Lover
TTITLE12=Alan Jackson - Hard Hat And A Hammer
TTITLE13=Sarah Evans - A Little Bit Stronger
TTITLE14=Rodney Atkins - Farmer's Daughter
TTITLE15=Kenny Chesney - The Boys Of Fall
TTITLE16=Billy Currington - Pretty Good At Dringin Beer
TTITLE17=Chris Young - The Man I Want To Be
TTITLE18=Clay Walker - She Won't Be Lonely Long
TTITLE19=Lee Brice - Love Like Crazy
EXTD=
EXTT0=
EXTT1=
EXTT2=
EXTT3=
EXTT4=
EXTT5=
EXTT6=
EXTT7=
EXTT8=
EXTT9=
EXTT10=
EXTT11=
EXTT12=
EXTT13=
EXTT14=
EXTT15=
EXTT16=
EXTT17=
EXTT18=
EXTT19=
PLAYORDER=
